<mxfile host="app.diagrams.net" agent="Mozilla/5.0 (Macintosh; Intel Mac OS X 10_15_7) AppleWebKit/605.1.15 (KHTML, like Gecko) Version/18.0 Safari/605.1.15" version="24.7.16">
  <diagram name="Page-1" id="0K-zK6V9VSiSMxOoucGs">
    <mxGraphModel dx="2021" dy="772" grid="1" gridSize="10" guides="1" tooltips="1" connect="1" arrows="1" fold="1" page="1" pageScale="1" pageWidth="827" pageHeight="1169" background="#000000" math="0" shadow="0">
      <root>
        <mxCell id="0" />
        <mxCell id="1" parent="0" />
        <mxCell id="8FxTswbYncQc3AANhVRh-1" value="Tools" style="rounded=1;whiteSpace=wrap;html=1;strokeColor=#FFFFFF;align=center;verticalAlign=bottom;fontFamily=Helvetica;fontSize=15;fontColor=#FFFFFF;fillColor=none;" vertex="1" parent="1">
          <mxGeometry x="69.21" y="600" width="210" height="130" as="geometry" />
        </mxCell>
        <mxCell id="8FxTswbYncQc3AANhVRh-2" value="" style="edgeStyle=orthogonalEdgeStyle;rounded=0;orthogonalLoop=1;jettySize=auto;html=1;" edge="1" parent="1" source="8FxTswbYncQc3AANhVRh-3" target="8FxTswbYncQc3AANhVRh-8">
          <mxGeometry relative="1" as="geometry" />
        </mxCell>
        <mxCell id="8FxTswbYncQc3AANhVRh-3" value="" style="rounded=1;whiteSpace=wrap;html=1;fillColor=none;strokeColor=#FFFFFF;" vertex="1" parent="1">
          <mxGeometry x="70" y="6" width="208.33" height="102" as="geometry" />
        </mxCell>
        <mxCell id="8FxTswbYncQc3AANhVRh-4" style="edgeStyle=orthogonalEdgeStyle;rounded=0;orthogonalLoop=1;jettySize=auto;html=1;strokeColor=#3399FF;strokeWidth=2;" edge="1" parent="1" source="8FxTswbYncQc3AANhVRh-3" target="8FxTswbYncQc3AANhVRh-8">
          <mxGeometry relative="1" as="geometry" />
        </mxCell>
        <mxCell id="8FxTswbYncQc3AANhVRh-5" value="&lt;font color=&quot;#ffffff&quot;&gt;Web browser&lt;/font&gt;" style="sketch=0;aspect=fixed;pointerEvents=1;shadow=0;dashed=0;html=1;strokeColor=none;labelPosition=center;verticalLabelPosition=bottom;verticalAlign=top;align=center;fillColor=#FFFFFF;shape=mxgraph.azure.laptop" vertex="1" parent="1">
          <mxGeometry x="195" y="42" width="63.33" height="38" as="geometry" />
        </mxCell>
        <mxCell id="8FxTswbYncQc3AANhVRh-6" value="&lt;font color=&quot;#ffffff&quot;&gt;Mobile app&lt;/font&gt;" style="verticalLabelPosition=bottom;verticalAlign=top;html=1;shadow=0;dashed=0;strokeWidth=1;shape=mxgraph.android.phone2;strokeColor=#c0c0c0;" vertex="1" parent="1">
          <mxGeometry x="110" y="27" width="30" height="60" as="geometry" />
        </mxCell>
        <mxCell id="8FxTswbYncQc3AANhVRh-7" value="User" style="text;html=1;align=center;verticalAlign=middle;whiteSpace=wrap;rounded=0;fontColor=#FFFFFF;" vertex="1" parent="1">
          <mxGeometry x="60" y="6" width="60" height="30" as="geometry" />
        </mxCell>
        <mxCell id="8FxTswbYncQc3AANhVRh-8" value="" style="image;aspect=fixed;html=1;points=[];align=center;fontSize=12;image=img/lib/azure2/networking/DNS_Zones.svg;" vertex="1" parent="1">
          <mxGeometry x="-80" y="25" width="64" height="64" as="geometry" />
        </mxCell>
        <mxCell id="8FxTswbYncQc3AANhVRh-9" value="&lt;blockquote style=&quot;margin: 0px 0px 0px 40px; border: medium; padding: 0px; line-height: 0%;&quot;&gt;&lt;blockquote style=&quot;margin: 0px 0px 0px 40px; border: medium; padding: 0px; line-height: 0%;&quot;&gt;&lt;blockquote style=&quot;margin: 0px 0px 0px 40px; border: medium; padding: 0px; line-height: 0%;&quot;&gt;&lt;blockquote style=&quot;margin: 0px 0px 0px 40px; border: medium; padding: 0px; line-height: 0%;&quot;&gt;&lt;p style=&quot;line-height: 0%;&quot;&gt;&lt;font color=&quot;#ffffff&quot;&gt;Load balancer&lt;/font&gt;&lt;/p&gt;&lt;/blockquote&gt;&lt;/blockquote&gt;&lt;/blockquote&gt;&lt;/blockquote&gt;" style="verticalLabelPosition=bottom;html=1;verticalAlign=top;align=center;strokeColor=none;fillColor=#00BEF2;shape=mxgraph.azure.azure_load_balancer;" vertex="1" parent="1">
          <mxGeometry x="149.17" y="150" width="50" height="35" as="geometry" />
        </mxCell>
        <mxCell id="8FxTswbYncQc3AANhVRh-10" style="edgeStyle=orthogonalEdgeStyle;rounded=0;orthogonalLoop=1;jettySize=auto;html=1;strokeColor=#3399FF;strokeWidth=2;exitX=0.5;exitY=1;exitDx=0;exitDy=0;entryX=0.5;entryY=0;entryDx=0;entryDy=0;entryPerimeter=0;" edge="1" parent="1" source="8FxTswbYncQc3AANhVRh-3" target="8FxTswbYncQc3AANhVRh-9">
          <mxGeometry relative="1" as="geometry">
            <mxPoint x="80" y="180" as="sourcePoint" />
            <mxPoint x="-6" y="67" as="targetPoint" />
          </mxGeometry>
        </mxCell>
        <mxCell id="8FxTswbYncQc3AANhVRh-11" value="CDN" style="image;aspect=fixed;html=1;points=[];align=center;fontSize=12;image=img/lib/azure2/app_services/CDN_Profiles.svg;labelBackgroundColor=none;fontColor=#FFFFFF;" vertex="1" parent="1">
          <mxGeometry x="350" y="37" width="68" height="40" as="geometry" />
        </mxCell>
        <mxCell id="8FxTswbYncQc3AANhVRh-12" value="" style="rounded=1;whiteSpace=wrap;html=1;strokeColor=#FFFFFF;fillColor=#000000;dashed=1;dashPattern=8 8;" vertex="1" parent="1">
          <mxGeometry x="-3.719999999999991" y="250" width="355.84" height="310" as="geometry" />
        </mxCell>
        <mxCell id="8FxTswbYncQc3AANhVRh-13" style="edgeStyle=orthogonalEdgeStyle;rounded=0;orthogonalLoop=1;jettySize=auto;html=1;strokeColor=#3399FF;strokeWidth=2;exitX=0.5;exitY=1;exitDx=0;exitDy=0;entryX=0.5;entryY=0;entryDx=0;entryDy=0;exitPerimeter=0;" edge="1" parent="1" source="8FxTswbYncQc3AANhVRh-9" target="8FxTswbYncQc3AANhVRh-12">
          <mxGeometry relative="1" as="geometry">
            <mxPoint x="184" y="118" as="sourcePoint" />
            <mxPoint x="184" y="197" as="targetPoint" />
          </mxGeometry>
        </mxCell>
        <mxCell id="8FxTswbYncQc3AANhVRh-14" value="" style="rounded=1;whiteSpace=wrap;html=1;labelBackgroundColor=none;fillColor=none;strokeColor=#FFFFFF;dashed=1;dashPattern=8 8;" vertex="1" parent="1">
          <mxGeometry x="39.199999999999996" y="284.5" width="80.84" height="75.5" as="geometry" />
        </mxCell>
        <mxCell id="8FxTswbYncQc3AANhVRh-15" style="edgeStyle=orthogonalEdgeStyle;rounded=0;orthogonalLoop=1;jettySize=auto;html=1;strokeColor=#3399FF;strokeWidth=2;exitX=1;exitY=0.5;exitDx=0;exitDy=0;" edge="1" parent="1" source="8FxTswbYncQc3AANhVRh-3" target="8FxTswbYncQc3AANhVRh-11">
          <mxGeometry relative="1" as="geometry">
            <mxPoint x="80" y="67" as="sourcePoint" />
            <mxPoint x="-6" y="67" as="targetPoint" />
          </mxGeometry>
        </mxCell>
        <mxCell id="8FxTswbYncQc3AANhVRh-16" value="&lt;font color=&quot;#ffffff&quot;&gt;WebServers&lt;/font&gt;" style="sketch=0;pointerEvents=1;shadow=0;dashed=0;html=1;strokeColor=none;fillColor=#505050;labelPosition=center;verticalLabelPosition=bottom;verticalAlign=top;outlineConnect=0;align=center;shape=mxgraph.office.servers.server_farm;fillColor=#7FBA42;" vertex="1" parent="1">
          <mxGeometry x="50.04" y="290" width="56" height="49" as="geometry" />
        </mxCell>
        <mxCell id="8FxTswbYncQc3AANhVRh-17" value="&lt;font color=&quot;#ffffff&quot;&gt;Message Queue&lt;/font&gt;" style="sketch=0;aspect=fixed;pointerEvents=1;shadow=0;dashed=0;html=1;strokeColor=none;labelPosition=center;verticalLabelPosition=bottom;verticalAlign=top;align=center;fillColor=#00188D;shape=mxgraph.azure.queue_generic" vertex="1" parent="1">
          <mxGeometry x="260.44999999999993" y="310.75" width="76.67" height="23" as="geometry" />
        </mxCell>
        <mxCell id="8FxTswbYncQc3AANhVRh-18" style="edgeStyle=orthogonalEdgeStyle;rounded=0;orthogonalLoop=1;jettySize=auto;html=1;strokeColor=#3399FF;strokeWidth=2;exitX=1;exitY=0.5;exitDx=0;exitDy=0;entryX=0;entryY=0.5;entryDx=0;entryDy=0;entryPerimeter=0;" edge="1" parent="1" source="8FxTswbYncQc3AANhVRh-14" target="8FxTswbYncQc3AANhVRh-17">
          <mxGeometry relative="1" as="geometry">
            <mxPoint x="184.04000000000002" y="182" as="sourcePoint" />
            <mxPoint x="184.04000000000002" y="260" as="targetPoint" />
          </mxGeometry>
        </mxCell>
        <mxCell id="8FxTswbYncQc3AANhVRh-19" value="" style="rounded=1;whiteSpace=wrap;html=1;labelBackgroundColor=none;fillColor=none;strokeColor=#FFFFFF;dashed=1;dashPattern=8 8;" vertex="1" parent="1">
          <mxGeometry x="258.37" y="444" width="80.84" height="75.5" as="geometry" />
        </mxCell>
        <mxCell id="8FxTswbYncQc3AANhVRh-20" value="&lt;font color=&quot;#ffffff&quot;&gt;Workers&lt;/font&gt;" style="sketch=0;pointerEvents=1;shadow=0;dashed=0;html=1;strokeColor=none;fillColor=#505050;labelPosition=center;verticalLabelPosition=bottom;verticalAlign=top;outlineConnect=0;align=center;shape=mxgraph.office.servers.server_farm;fillColor=#7FBA42;" vertex="1" parent="1">
          <mxGeometry x="269.2099999999999" y="449.5" width="56" height="49" as="geometry" />
        </mxCell>
        <mxCell id="8FxTswbYncQc3AANhVRh-21" style="edgeStyle=orthogonalEdgeStyle;rounded=0;orthogonalLoop=1;jettySize=auto;html=1;strokeColor=#3399FF;strokeWidth=2;entryX=0.5;entryY=0;entryDx=0;entryDy=0;" edge="1" parent="1" target="8FxTswbYncQc3AANhVRh-19">
          <mxGeometry relative="1" as="geometry">
            <mxPoint x="298.44999999999993" y="360" as="sourcePoint" />
            <mxPoint x="270.44999999999993" y="332" as="targetPoint" />
          </mxGeometry>
        </mxCell>
        <mxCell id="8FxTswbYncQc3AANhVRh-22" value="&lt;font style=&quot;font-size: 10px;&quot;&gt;Shard 1&lt;/font&gt;" style="sketch=0;outlineConnect=0;fontColor=#232F3E;gradientColor=none;fillColor=#232F3D;strokeColor=none;dashed=0;verticalLabelPosition=bottom;verticalAlign=top;align=center;html=1;fontSize=12;fontStyle=0;aspect=fixed;pointerEvents=1;shape=mxgraph.aws4.generic_database;" vertex="1" parent="1">
          <mxGeometry x="29.200000000000003" y="442" width="30" height="40" as="geometry" />
        </mxCell>
        <mxCell id="8FxTswbYncQc3AANhVRh-23" value="Databases" style="rounded=1;whiteSpace=wrap;html=1;fillColor=none;strokeColor=#6c8ebf;verticalAlign=bottom;fontColor=#FFFFFF;" vertex="1" parent="1">
          <mxGeometry x="19.200000000000003" y="441.5" width="130" height="80.5" as="geometry" />
        </mxCell>
        <mxCell id="8FxTswbYncQc3AANhVRh-24" value="&lt;font style=&quot;font-size: 10px;&quot;&gt;Shard 2&lt;/font&gt;" style="sketch=0;outlineConnect=0;fontColor=#232F3E;gradientColor=none;fillColor=#232F3D;strokeColor=none;dashed=0;verticalLabelPosition=bottom;verticalAlign=top;align=center;html=1;fontSize=12;fontStyle=0;aspect=fixed;pointerEvents=1;shape=mxgraph.aws4.generic_database;" vertex="1" parent="1">
          <mxGeometry x="69.19999999999999" y="442" width="30" height="40" as="geometry" />
        </mxCell>
        <mxCell id="8FxTswbYncQc3AANhVRh-25" value="&lt;font style=&quot;font-size: 10px;&quot;&gt;Shard 3&lt;/font&gt;" style="sketch=0;outlineConnect=0;fontColor=#232F3E;gradientColor=none;fillColor=#232F3D;strokeColor=none;dashed=0;verticalLabelPosition=bottom;verticalAlign=top;align=center;html=1;fontSize=12;fontStyle=0;aspect=fixed;pointerEvents=1;shape=mxgraph.aws4.generic_database;" vertex="1" parent="1">
          <mxGeometry x="108.93999999999998" y="442" width="30.26" height="40" as="geometry" />
        </mxCell>
        <mxCell id="8FxTswbYncQc3AANhVRh-26" value="" style="endArrow=none;dashed=1;html=1;dashPattern=1 3;strokeWidth=2;rounded=0;" edge="1" parent="1" target="8FxTswbYncQc3AANhVRh-23">
          <mxGeometry width="50" height="50" relative="1" as="geometry">
            <mxPoint x="210.04000000000002" y="410" as="sourcePoint" />
            <mxPoint x="260.03999999999996" y="360" as="targetPoint" />
          </mxGeometry>
        </mxCell>
        <mxCell id="8FxTswbYncQc3AANhVRh-27" style="rounded=0;orthogonalLoop=1;jettySize=auto;html=1;strokeColor=#3399FF;strokeWidth=2;exitX=0.5;exitY=1;exitDx=0;exitDy=0;entryX=0.468;entryY=-0.019;entryDx=0;entryDy=0;entryPerimeter=0;flowAnimation=0;" edge="1" parent="1" source="8FxTswbYncQc3AANhVRh-14" target="8FxTswbYncQc3AANhVRh-23">
          <mxGeometry relative="1" as="geometry">
            <mxPoint x="69.19999999999999" y="366" as="sourcePoint" />
            <mxPoint x="69.19999999999999" y="444" as="targetPoint" />
          </mxGeometry>
        </mxCell>
        <mxCell id="8FxTswbYncQc3AANhVRh-28" value="Caches" style="rounded=1;whiteSpace=wrap;html=1;fillColor=none;strokeColor=#6c8ebf;verticalAlign=bottom;fontColor=#FFFFFF;" vertex="1" parent="1">
          <mxGeometry x="160.04000000000002" y="441.5" width="70" height="82" as="geometry" />
        </mxCell>
        <mxCell id="8FxTswbYncQc3AANhVRh-29" value="" style="outlineConnect=0;dashed=0;verticalLabelPosition=bottom;verticalAlign=top;align=center;html=1;shape=mxgraph.aws3.cache_node;fillColor=#2E73B8;gradientColor=none;" vertex="1" parent="1">
          <mxGeometry x="169.20000000000002" y="448" width="30" height="40" as="geometry" />
        </mxCell>
        <mxCell id="8FxTswbYncQc3AANhVRh-30" value="" style="outlineConnect=0;dashed=0;verticalLabelPosition=bottom;verticalAlign=top;align=center;html=1;shape=mxgraph.aws3.cache_node;fillColor=#2E73B8;gradientColor=none;" vertex="1" parent="1">
          <mxGeometry x="179.20000000000002" y="458" width="30" height="40" as="geometry" />
        </mxCell>
        <mxCell id="8FxTswbYncQc3AANhVRh-31" value="" style="outlineConnect=0;dashed=0;verticalLabelPosition=bottom;verticalAlign=top;align=center;html=1;shape=mxgraph.aws3.cache_node;fillColor=#2E73B8;gradientColor=none;" vertex="1" parent="1">
          <mxGeometry x="189.20000000000002" y="468" width="30" height="40" as="geometry" />
        </mxCell>
        <mxCell id="8FxTswbYncQc3AANhVRh-32" style="rounded=0;orthogonalLoop=1;jettySize=auto;html=1;strokeColor=#3399FF;strokeWidth=2;entryX=0.5;entryY=0;entryDx=0;entryDy=0;exitX=0.5;exitY=1;exitDx=0;exitDy=0;" edge="1" parent="1" source="8FxTswbYncQc3AANhVRh-14" target="8FxTswbYncQc3AANhVRh-28">
          <mxGeometry relative="1" as="geometry">
            <mxPoint x="90.03999999999999" y="370" as="sourcePoint" />
            <mxPoint x="90.03999999999999" y="450" as="targetPoint" />
          </mxGeometry>
        </mxCell>
        <mxCell id="8FxTswbYncQc3AANhVRh-33" value="NoSQL" style="rounded=1;whiteSpace=wrap;html=1;fillColor=none;strokeColor=#6c8ebf;verticalAlign=bottom;fontColor=#FFFFFF;" vertex="1" parent="1">
          <mxGeometry x="395.03999999999996" y="440" width="70" height="90" as="geometry" />
        </mxCell>
        <mxCell id="8FxTswbYncQc3AANhVRh-34" value="&lt;font style=&quot;font-size: 18px;&quot;&gt;{ }&lt;/font&gt;" style="shape=cylinder3;whiteSpace=wrap;html=1;boundedLbl=1;backgroundOutline=1;size=15;fillColor=#0050ef;strokeColor=#001DBC;fontColor=#000000;fontSize=18;" vertex="1" parent="1">
          <mxGeometry x="410.03999999999996" y="447" width="40" height="62" as="geometry" />
        </mxCell>
        <mxCell id="8FxTswbYncQc3AANhVRh-35" style="rounded=0;orthogonalLoop=1;jettySize=auto;html=1;strokeColor=#3399FF;strokeWidth=2;entryX=0.5;entryY=0;entryDx=0;entryDy=0;exitX=0.75;exitY=1;exitDx=0;exitDy=0;" edge="1" parent="1" source="8FxTswbYncQc3AANhVRh-14" target="8FxTswbYncQc3AANhVRh-33">
          <mxGeometry relative="1" as="geometry">
            <mxPoint x="160.04000000000002" y="350" as="sourcePoint" />
            <mxPoint x="275.03999999999996" y="432" as="targetPoint" />
          </mxGeometry>
        </mxCell>
        <mxCell id="8FxTswbYncQc3AANhVRh-36" value="&lt;font style=&quot;font-size: 17px;&quot; color=&quot;#ffffff&quot;&gt;Logging&lt;/font&gt;" style="rounded=1;whiteSpace=wrap;html=1;strokeColor=#FFFFFF;align=center;verticalAlign=middle;fontFamily=Helvetica;fontSize=12;fontColor=default;fillColor=none;" vertex="1" parent="1">
          <mxGeometry x="79.21" y="610" width="90" height="40" as="geometry" />
        </mxCell>
        <mxCell id="8FxTswbYncQc3AANhVRh-37" value="&lt;font style=&quot;font-size: 17px;&quot; color=&quot;#ffffff&quot;&gt;Automation&lt;/font&gt;" style="rounded=1;whiteSpace=wrap;html=1;strokeColor=#FFFFFF;align=center;verticalAlign=middle;fontFamily=Helvetica;fontSize=12;fontColor=default;fillColor=none;" vertex="1" parent="1">
          <mxGeometry x="179.21" y="660" width="90" height="40" as="geometry" />
        </mxCell>
        <mxCell id="8FxTswbYncQc3AANhVRh-38" value="&lt;font style=&quot;font-size: 17px;&quot; color=&quot;#ffffff&quot;&gt;Monitoring&lt;/font&gt;" style="rounded=1;whiteSpace=wrap;html=1;strokeColor=#FFFFFF;align=center;verticalAlign=middle;fontFamily=Helvetica;fontSize=12;fontColor=default;fillColor=none;" vertex="1" parent="1">
          <mxGeometry x="79.21" y="660" width="90" height="40" as="geometry" />
        </mxCell>
        <mxCell id="8FxTswbYncQc3AANhVRh-39" value="&lt;font style=&quot;font-size: 17px;&quot; color=&quot;#ffffff&quot;&gt;Metrics&lt;/font&gt;" style="rounded=1;whiteSpace=wrap;html=1;strokeColor=#FFFFFF;align=center;verticalAlign=middle;fontFamily=Helvetica;fontSize=12;fontColor=default;fillColor=none;" vertex="1" parent="1">
          <mxGeometry x="179.21" y="610" width="90" height="40" as="geometry" />
        </mxCell>
        <mxCell id="8FxTswbYncQc3AANhVRh-40" style="edgeStyle=none;shape=connector;rounded=0;orthogonalLoop=1;jettySize=auto;html=1;entryX=0.5;entryY=1;entryDx=0;entryDy=0;strokeColor=#3399FF;strokeWidth=2;align=center;verticalAlign=middle;fontFamily=Helvetica;fontSize=11;fontColor=default;labelBackgroundColor=default;endArrow=classic;flowAnimation=0;" edge="1" parent="1" source="8FxTswbYncQc3AANhVRh-1" target="8FxTswbYncQc3AANhVRh-12">
          <mxGeometry relative="1" as="geometry" />
        </mxCell>
      </root>
    </mxGraphModel>
  </diagram>
</mxfile>
